<?xml version="1.0" encoding="iso-8859-1"?>
<!-- Generator: Adobe Illustrator 19.0.0, SVG Export Plug-In . SVG Version: 6.00 Build 0)  -->
<svg version="1.1" id="Layer_1" xmlns="http://www.w3.org/2000/svg" xmlns:xlink="http://www.w3.org/1999/xlink" x="0px" y="0px"
	 viewBox="0 0 512 512" style="enable-background:new 0 0 512 512;" xml:space="preserve">
<circle style="fill:#366695;" cx="256" cy="256" r="256"/>
<path style="fill:#263A7A;" d="M400.475,155.71L106.453,262.989l74.228,77.291l0.152,4.934l155.131,154.031
	c98.242-32.277,170.246-122.39,175.704-230.074L400.475,155.71z"/>
<path style="fill:#FFEDB5;" d="M227.7,114.966c-63.198,0-114.431,51.233-114.431,114.431S179.155,345.369,227.7,381.973
	c14.457,10.9,30.992,18.86,46.756,21.819c27.774,5.215,53.42-16.224,53.42-44.484V184.141c0-7.113-2.088-14.102-6.146-19.944
	C301.068,134.447,266.666,114.966,227.7,114.966z"/>
<path style="fill:#FEE187;" d="M327.878,184.139c0-7.113-2.088-14.102-6.146-19.944c-19.615-28.239-51.615-47.214-88.142-49.068
	v271.039c12.965,8.735,27.205,15.06,40.867,17.625c27.774,5.215,53.42-16.224,53.42-44.484V184.139z"/>
<path style="fill:#333333;" d="M206.8,307.388c6.985,0,16.298,0,23.281,0c-12.709-65.658,49.728-98.561,97.916-130.26
	c-0.898-4.786-2.744-9.366-5.544-13.398c-20.809-29.96-55.458-49.58-94.699-49.58c-63.648,0-115.245,51.596-115.245,115.245
	c0,44.36,32.235,83.609,68.32,115.81c14.4-21.792,16.234-54.675,25.971-77.395C211.456,281.779,211.456,293.419,206.8,307.388z"/>
<path style="fill:#1E1E1E;" d="M327.237,177.5c-0.893-4.753-2.724-9.3-5.506-13.303c-19.615-28.239-51.615-47.214-88.142-49.068
	v147.318C248.372,224.916,291.702,200.876,327.237,177.5z"/>
<path style="fill:#FDE085;" d="M201.094,267.642c-10.045,0-18.189,8.144-18.189,18.189c0,10.045,10.473,18.434,18.189,24.252
	c2.298,1.733,4.927,2.998,7.432,3.468c4.415,0.829,8.49-2.579,8.49-7.071v-27.843c0-1.131-0.333-2.241-0.977-3.17
	C212.754,270.738,207.286,267.642,201.094,267.642z"/>
<path style="fill:#778D9E;" d="M229.988,103.976c-70.846,0-128.278,57.432-128.278,128.278c0,0.138,0.009,0.274,0.01,0.412
	c-0.002,0.035-0.01,0.067-0.01,0.103v19.168c0,8.618,6.987,15.605,15.605,15.605h136.971v-38.143H118.108
	c1.52-60.504,51.009-109.094,111.878-109.094c42.105,0,78.762,23.255,97.876,57.611l11.955-11.955
	C317.35,128.81,276.571,103.976,229.988,103.976z"/>
<path style="fill:#FFC61B;" d="M394.63,153.109h-40.745c-14.789,0-26.777,11.99-26.777,26.777v11.366h-38.529
	c-5.853,0-10.595,4.744-10.595,10.595v2.503c0,5.853-4.744,10.595-10.595,10.595h-5.972c-5.853,0-10.595,4.744-10.595,10.595v69.544
	c0,5.853,4.744,10.595,10.595,10.595h65.691v11.366c0,14.789,11.99,26.777,26.777,26.777h40.745c4.841,0,8.764-3.924,8.764-8.764
	V161.875C403.394,157.034,399.47,153.109,394.63,153.109z"/>
<path style="fill:#D89E0F;" d="M250.818,248.53v46.559c0,5.853,4.744,10.595,10.595,10.595h65.691v11.366
	c0,14.789,11.99,26.777,26.777,26.777h40.745c4.841,0,8.764-3.924,8.764-8.764V248.53H250.818z"/>
<rect x="308.614" y="191.25" style="fill:#D48B07;" width="18.494" height="114.433"/>
<rect x="308.614" y="248.535" style="fill:#9B6207;" width="18.494" height="57.147"/>
<path style="fill:#386895;" d="M303.185,267.542h23.921v-38.143h-23.921c-7.854,0-14.222,6.368-14.222,14.222v9.699
	C288.963,261.173,295.329,267.542,303.185,267.542z"/>
<path style="fill:#273B7A;" d="M288.963,248.53v4.789c0,7.854,6.368,14.222,14.222,14.222h23.921V248.53H288.963z"/>
<circle style="fill:#FFC61B;" cx="303.994" cy="248.467" r="3.465"/>
<g>
</g>
<g>
</g>
<g>
</g>
<g>
</g>
<g>
</g>
<g>
</g>
<g>
</g>
<g>
</g>
<g>
</g>
<g>
</g>
<g>
</g>
<g>
</g>
<g>
</g>
<g>
</g>
<g>
</g>
</svg>
